<?xml version="1.0" encoding="UTF-8" standalone="no"?>
<svg xmlns="http://www.w3.org/2000/svg"
     xmlns:svg="http://www.w3.org/2000/svg"
     version="1.1"
     width="27.0972in" height="39.5278in"
     viewBox="0 0 1951 2846">
  <path id="Selection"
        fill="none" stroke="black" stroke-width="1"
        d="M 119.00,0.52
           C 119.00,0.52 162.00,0.00 162.00,0.00
             162.00,0.00 245.00,0.00 245.00,0.00
             245.00,0.00 337.00,0.00 337.00,0.00
             337.00,0.00 402.00,0.00 402.00,0.00
             402.00,0.00 421.00,1.00 421.00,1.00
             421.00,1.00 462.00,5.59 462.00,5.59
             506.58,13.07 548.31,29.05 578.71,64.00
             618.49,109.73 629.32,163.55 635.17,222.00
             635.17,222.00 639.00,284.00 639.00,284.00
             639.00,284.00 640.00,301.00 640.00,301.00
             640.00,301.00 640.00,340.00 640.00,340.00
             640.00,340.00 641.00,357.00 641.00,357.00
             641.00,357.00 641.00,483.00 641.00,483.00
             641.00,483.00 641.00,593.00 641.00,593.00
             641.00,593.00 641.00,679.00 641.00,679.00
             641.00,679.00 640.00,694.00 640.00,694.00
             640.00,694.00 640.00,735.00 640.00,735.00
             640.00,735.00 639.04,745.00 639.04,745.00
             639.04,745.00 639.04,761.00 639.04,761.00
             639.04,761.00 638.00,778.00 638.00,778.00
             638.00,778.00 637.09,788.00 637.09,788.00
             637.09,788.00 634.16,822.00 634.16,822.00
             626.65,892.28 605.64,961.43 542.00,1000.94
             524.46,1011.82 504.86,1018.61 485.00,1023.85
             466.01,1028.85 444.57,1031.57 425.00,1033.00
             425.00,1033.00 416.00,1033.00 416.00,1033.00
             416.00,1033.00 404.00,1034.00 404.00,1034.00
             404.00,1034.00 173.00,1034.00 173.00,1034.00
             173.00,1034.00 126.00,1034.00 126.00,1034.00
             120.14,1033.97 114.84,1033.51 110.18,1029.47
             103.67,1023.82 103.01,1015.04 103.00,1007.00
             103.00,1007.00 103.00,413.00 103.00,413.00
             103.00,413.00 103.00,99.00 103.00,99.00
             103.00,99.00 103.00,25.00 103.00,25.00
             103.15,12.48 106.01,4.10 119.00,0.52 Z
           M 883.00,132.00
           C 883.00,132.00 732.00,132.00 732.00,132.00
             714.17,131.79 706.03,125.32 706.00,107.00
             706.00,107.00 706.00,24.00 706.00,24.00
             706.03,7.06 713.13,0.03 730.00,0.00
             730.00,0.00 1119.00,0.00 1119.00,0.00
             1119.00,0.00 1213.00,0.00 1213.00,0.00
             1229.31,0.03 1236.97,6.20 1237.00,23.00
             1237.00,23.00 1237.00,92.00 1237.00,92.00
             1237.00,100.86 1238.43,115.50 1233.78,122.96
             1228.67,131.14 1217.73,131.99 1209.00,132.00
             1209.00,132.00 1060.00,132.00 1060.00,132.00
             1060.00,132.00 1060.00,824.00 1060.00,824.00
             1060.00,824.00 1060.00,985.00 1060.00,985.00
             1060.00,985.00 1060.00,1004.00 1060.00,1004.00
             1060.00,1015.75 1060.83,1028.29 1047.00,1032.78
             1043.11,1034.04 1040.00,1033.99 1036.00,1034.00
             1036.00,1034.00 907.00,1034.00 907.00,1034.00
             888.54,1033.97 883.03,1025.60 883.00,1008.00
             883.00,1008.00 883.00,132.00 883.00,132.00 Z
           M 1322.00,0.16
           C 1322.00,0.16 1365.00,0.16 1365.00,0.16
             1365.00,0.16 1447.00,0.16 1447.00,0.16
             1463.31,0.03 1470.97,6.20 1471.00,23.00
             1471.00,23.00 1471.00,770.00 1471.00,770.00
             1471.00,770.00 1471.96,782.00 1471.96,782.00
             1471.96,782.00 1471.96,794.00 1471.96,794.00
             1471.96,794.00 1472.91,806.00 1472.91,806.00
             1474.93,835.35 1478.41,868.20 1495.77,893.00
             1512.08,916.30 1535.52,926.17 1563.00,928.09
             1563.00,928.09 1572.00,928.97 1572.00,928.97
             1572.00,928.97 1581.00,928.09 1581.00,928.09
             1608.06,926.23 1631.94,918.57 1649.10,896.00
             1668.30,870.76 1671.99,837.60 1674.09,807.00
             1674.09,807.00 1675.04,796.00 1675.04,796.00
             1675.04,796.00 1675.04,783.00 1675.04,783.00
             1675.04,783.00 1676.00,771.00 1676.00,771.00
             1676.00,771.00 1676.00,179.00 1676.00,179.00
             1676.00,179.00 1676.00,43.00 1676.00,43.00
             1676.00,43.00 1676.00,28.00 1676.00,28.00
             1676.00,16.19 1675.91,4.81 1690.00,0.93
             1693.58,-0.06 1696.36,0.01 1700.00,0.00
             1700.00,0.00 1819.00,0.00 1819.00,0.00
             1834.48,0.19 1840.98,7.98 1841.00,23.00
             1841.00,23.00 1841.00,631.00 1841.00,631.00
             1841.00,631.00 1841.00,751.00 1841.00,751.00
             1841.00,751.00 1841.00,784.00 1841.00,784.00
             1841.00,784.00 1840.00,805.00 1840.00,805.00
             1840.00,805.00 1838.17,826.00 1838.17,826.00
             1834.18,865.86 1827.02,901.34 1807.69,937.00
             1801.45,948.51 1789.73,965.51 1780.91,975.00
             1772.82,983.70 1762.63,993.65 1753.00,1000.57
             1712.43,1029.75 1667.83,1040.29 1619.00,1045.17
             1619.00,1045.17 1593.00,1047.00 1593.00,1047.00
             1593.00,1047.00 1553.00,1047.00 1553.00,1047.00
             1553.00,1047.00 1528.00,1045.09 1528.00,1045.09
             1444.91,1039.02 1365.01,1003.83 1330.43,923.00
             1315.02,886.99 1307.45,835.13 1307.00,796.00
             1307.00,796.00 1306.00,781.00 1306.00,781.00
             1306.00,781.00 1306.00,690.00 1306.00,690.00
             1306.00,690.00 1306.00,312.00 1306.00,312.00
             1306.00,312.00 1306.00,75.00 1306.00,75.00
             1306.00,75.00 1306.00,22.00 1306.00,22.00
             1306.06,10.38 1310.21,3.28 1322.00,0.16 Z
           M 269.00,912.00
           C 269.00,912.00 372.00,912.00 372.00,912.00
             382.62,911.98 398.88,909.50 409.00,906.25
             456.36,891.06 465.94,836.09 469.09,793.00
             469.09,793.00 471.00,765.00 471.00,765.00
             471.00,765.00 472.00,751.00 472.00,751.00
             472.00,751.00 472.00,735.00 472.00,735.00
             472.00,735.00 473.00,719.00 473.00,719.00
             473.00,719.00 473.00,315.00 473.00,315.00
             473.00,315.00 472.00,298.00 472.00,298.00
             472.00,298.00 472.00,284.00 472.00,284.00
             472.00,284.00 471.00,264.00 471.00,264.00
             471.00,264.00 469.09,241.00 469.09,241.00
             465.82,196.31 455.85,141.19 406.00,126.91
             396.87,124.29 381.47,122.01 372.00,122.00
             372.00,122.00 269.00,122.00 269.00,122.00
             269.00,122.00 269.00,912.00 269.00,912.00 Z
           M 0.00,1550.00
           C 0.00,1550.00 38.00,1529.74 38.00,1529.74
             38.00,1529.74 98.00,1498.22 98.00,1498.22
             98.00,1498.22 296.00,1394.22 296.00,1394.22
             296.00,1394.22 377.00,1351.69 377.00,1351.69
             377.00,1351.69 401.00,1338.86 401.00,1338.86
             404.04,1337.17 411.82,1332.87 415.00,1332.71
             418.53,1332.54 427.27,1336.56 431.00,1337.95
             431.00,1337.95 468.00,1352.32 468.00,1352.32
             468.00,1352.32 606.00,1404.31 606.00,1404.31
             700.08,1437.79 795.57,1470.63 895.00,1483.72
             927.19,1487.96 959.53,1489.38 992.00,1489.00
             992.00,1489.00 1010.00,1488.00 1010.00,1488.00
             1010.00,1488.00 1020.00,1487.09 1020.00,1487.09
             1059.52,1484.37 1098.40,1477.51 1137.00,1468.65
             1218.80,1449.88 1308.15,1418.07 1387.00,1388.58
             1387.00,1388.58 1491.00,1348.95 1491.00,1348.95
             1491.00,1348.95 1521.00,1337.32 1521.00,1337.32
             1523.82,1336.28 1531.61,1332.91 1534.00,1332.74
             1537.33,1332.49 1541.07,1334.78 1544.00,1336.25
             1544.00,1336.25 1563.00,1346.24 1563.00,1346.24
             1563.00,1346.24 1639.00,1386.22 1639.00,1386.22
             1639.00,1386.22 1778.00,1459.22 1778.00,1459.22
             1778.00,1459.22 1857.00,1500.69 1857.00,1500.69
             1857.00,1500.69 1918.00,1532.74 1918.00,1532.74
             1918.00,1532.74 1939.00,1543.74 1939.00,1543.74
             1943.54,1546.08 1947.33,1547.34 1951.00,1551.00
             1951.00,1551.00 1885.00,1585.78 1885.00,1585.78
             1885.00,1585.78 1736.00,1664.22 1736.00,1664.22
             1736.00,1664.22 1676.00,1695.69 1676.00,1695.69
             1676.00,1695.69 1660.00,1703.86 1660.00,1703.86
             1660.00,1703.86 1621.00,1724.31 1621.00,1724.31
             1621.00,1724.31 1570.00,1751.25 1570.00,1751.25
             1570.00,1751.25 1546.00,1763.75 1546.00,1763.75
             1543.22,1765.15 1537.89,1768.35 1535.00,1768.40
             1532.03,1768.46 1519.50,1763.20 1516.00,1761.80
             1516.00,1761.80 1476.00,1746.40 1476.00,1746.40
             1476.00,1746.40 1344.00,1696.69 1344.00,1696.69
             1256.69,1665.52 1153.76,1630.36 1062.00,1618.28
             1062.00,1618.28 1007.00,1613.00 1007.00,1613.00
             1007.00,1613.00 987.00,1612.00 987.00,1612.00
             987.00,1612.00 963.00,1612.00 963.00,1612.00
             963.00,1612.00 942.00,1613.00 942.00,1613.00
             942.00,1613.00 920.00,1614.83 920.00,1614.83
             884.77,1618.24 851.56,1623.94 817.00,1631.58
             740.15,1648.55 644.41,1682.32 570.00,1710.05
             570.00,1710.05 460.00,1751.81 460.00,1751.81
             460.00,1751.81 429.00,1763.81 429.00,1763.81
             425.68,1765.10 418.21,1768.64 415.00,1768.40
             411.90,1768.18 403.04,1763.29 400.00,1761.58
             400.00,1761.58 376.00,1748.86 376.00,1748.86
             376.00,1748.86 295.00,1706.31 295.00,1706.31
             295.00,1706.31 240.00,1677.69 240.00,1677.69
             240.00,1677.69 101.00,1604.74 101.00,1604.74
             101.00,1604.74 40.00,1572.69 40.00,1572.69
             40.00,1572.69 0.00,1552.00 0.00,1552.00
             0.00,1552.00 0.00,1550.00 0.00,1550.00 Z
           M 0.00,2088.00
           C 0.00,2088.00 28.00,2073.26 28.00,2073.26
             28.00,2073.26 127.00,2021.26 127.00,2021.26
             127.00,2021.26 246.00,1958.78 246.00,1958.78
             246.00,1958.78 301.00,1930.14 301.00,1930.14
             301.00,1930.14 383.00,1886.86 383.00,1886.86
             383.00,1886.86 405.00,1875.31 405.00,1875.31
             408.55,1873.39 412.85,1870.83 417.00,1871.42
             417.00,1871.42 437.00,1878.80 437.00,1878.80
             437.00,1878.80 474.00,1893.19 474.00,1893.19
             474.00,1893.19 590.00,1936.95 590.00,1936.95
             662.90,1963.61 736.40,1988.96 812.00,2006.88
             852.17,2016.41 895.78,2024.24 937.00,2026.04
             937.00,2026.04 948.00,2027.00 948.00,2027.00
             948.00,2027.00 1002.00,2027.00 1002.00,2027.00
             1002.00,2027.00 1013.00,2026.04 1013.00,2026.04
             1051.33,2024.37 1089.55,2017.69 1127.00,2009.42
             1208.99,1991.32 1296.23,1961.05 1375.00,1931.58
             1375.00,1931.58 1485.00,1889.80 1485.00,1889.80
             1485.00,1889.80 1518.00,1877.00 1518.00,1877.00
             1521.88,1875.45 1531.24,1871.28 1535.00,1871.39
             1538.40,1871.50 1544.78,1875.12 1548.00,1876.76
             1548.00,1876.76 1576.00,1891.58 1576.00,1891.58
             1576.00,1891.58 1610.00,1909.26 1610.00,1909.26
             1610.00,1909.26 1658.00,1934.69 1658.00,1934.69
             1658.00,1934.69 1710.00,1961.78 1710.00,1961.78
             1710.00,1961.78 1798.00,2008.22 1798.00,2008.22
             1798.00,2008.22 1831.00,2025.31 1831.00,2025.31
             1831.00,2025.31 1909.00,2066.26 1909.00,2066.26
             1909.00,2066.26 1951.00,2088.00 1951.00,2088.00
             1951.00,2088.00 1951.00,2090.00 1951.00,2090.00
             1951.00,2090.00 1917.00,2107.69 1917.00,2107.69
             1917.00,2107.69 1854.00,2140.74 1854.00,2140.74
             1854.00,2140.74 1643.00,2251.26 1643.00,2251.26
             1643.00,2251.26 1563.00,2293.26 1563.00,2293.26
             1563.00,2293.26 1544.00,2303.25 1544.00,2303.25
             1540.52,2304.98 1537.04,2307.16 1533.00,2306.58
             1533.00,2306.58 1519.00,2301.42 1519.00,2301.42
             1519.00,2301.42 1488.00,2289.42 1488.00,2289.42
             1488.00,2289.42 1388.00,2251.42 1388.00,2251.42
             1310.67,2222.25 1232.24,2194.69 1152.00,2174.63
             1115.62,2165.53 1078.35,2157.90 1041.00,2154.17
             1041.00,2154.17 1024.00,2152.83 1024.00,2152.83
             1024.00,2152.83 1010.00,2151.91 1010.00,2151.91
             1010.00,2151.91 1000.00,2151.00 1000.00,2151.00
             1000.00,2151.00 952.00,2151.00 952.00,2151.00
             952.00,2151.00 940.00,2151.91 940.00,2151.91
             940.00,2151.91 909.00,2154.17 909.00,2154.17
             807.58,2164.31 688.94,2204.96 593.00,2240.05
             593.00,2240.05 470.00,2286.42 470.00,2286.42
             470.00,2286.42 436.00,2299.60 436.00,2299.60
             436.00,2299.60 417.00,2306.58 417.00,2306.58
             412.96,2307.15 409.48,2304.99 406.00,2303.25
             406.00,2303.25 387.00,2293.25 387.00,2293.25
             387.00,2293.25 309.00,2252.25 309.00,2252.25
             309.00,2252.25 253.00,2222.78 253.00,2222.78
             253.00,2222.78 133.00,2159.78 133.00,2159.78
             133.00,2159.78 52.00,2117.26 52.00,2117.26
             52.00,2117.26 0.00,2090.00 0.00,2090.00
             0.00,2090.00 0.00,2088.00 0.00,2088.00 Z
           M 0.00,2629.00
           C 2.64,2624.01 6.15,2623.18 11.00,2620.75
             11.00,2620.75 28.00,2611.76 28.00,2611.76
             28.00,2611.76 97.00,2575.74 97.00,2575.74
             97.00,2575.74 226.00,2507.78 226.00,2507.78
             226.00,2507.78 320.00,2458.69 320.00,2458.69
             320.00,2458.69 367.00,2433.78 367.00,2433.78
             367.00,2433.78 383.00,2425.58 383.00,2425.58
             383.00,2425.58 402.00,2415.58 402.00,2415.58
             405.15,2413.80 411.53,2409.86 415.00,2409.71
             418.21,2409.58 429.43,2414.37 433.00,2415.80
             433.00,2415.80 472.00,2430.95 472.00,2430.95
             472.00,2430.95 616.00,2484.95 616.00,2484.95
             685.90,2510.49 757.28,2533.45 830.00,2549.42
             862.92,2556.66 896.40,2561.78 930.00,2564.09
             930.00,2564.09 942.00,2565.00 942.00,2565.00
             942.00,2565.00 960.00,2566.00 960.00,2566.00
             960.00,2566.00 990.00,2566.00 990.00,2566.00
             990.00,2566.00 1010.00,2565.00 1010.00,2565.00
             1010.00,2565.00 1020.00,2564.09 1020.00,2564.09
             1059.55,2561.37 1098.37,2554.52 1137.00,2545.65
             1217.38,2527.20 1309.49,2494.82 1387.00,2465.58
             1387.00,2465.58 1488.00,2427.19 1488.00,2427.19
             1488.00,2427.19 1519.00,2415.19 1519.00,2415.19
             1522.09,2413.99 1531.36,2409.93 1534.00,2409.74
             1537.19,2409.50 1540.23,2411.38 1543.00,2412.75
             1543.00,2412.75 1562.00,2422.75 1562.00,2422.75
             1562.00,2422.75 1638.00,2462.74 1638.00,2462.74
             1638.00,2462.74 1757.00,2525.22 1757.00,2525.22
             1757.00,2525.22 1857.00,2577.69 1857.00,2577.69
             1857.00,2577.69 1920.00,2610.74 1920.00,2610.74
             1926.69,2614.19 1946.61,2623.61 1951.00,2628.00
             1951.00,2628.00 1883.00,2663.78 1883.00,2663.78
             1883.00,2663.78 1734.00,2742.22 1734.00,2742.22
             1734.00,2742.22 1660.00,2780.86 1660.00,2780.86
             1660.00,2780.86 1602.00,2811.26 1602.00,2811.26
             1602.00,2811.26 1570.00,2828.25 1570.00,2828.25
             1570.00,2828.25 1546.00,2840.75 1546.00,2840.75
             1543.22,2842.15 1537.89,2845.35 1535.00,2845.40
             1532.10,2845.46 1520.37,2840.55 1517.00,2839.20
             1517.00,2839.20 1479.00,2824.42 1479.00,2824.42
             1479.00,2824.42 1344.00,2773.69 1344.00,2773.69
             1256.69,2742.52 1153.76,2707.36 1062.00,2695.28
             1062.00,2695.28 1007.00,2690.00 1007.00,2690.00
             1007.00,2690.00 987.00,2689.00 987.00,2689.00
             987.00,2689.00 963.00,2689.00 963.00,2689.00
             963.00,2689.00 942.00,2690.00 942.00,2690.00
             942.00,2690.00 920.00,2691.83 920.00,2691.83
             882.72,2695.44 853.52,2700.51 817.00,2708.58
             739.64,2725.66 644.84,2759.15 570.00,2787.05
             570.00,2787.05 460.00,2828.81 460.00,2828.81
             460.00,2828.81 429.00,2840.81 429.00,2840.81
             425.68,2842.10 418.21,2845.64 415.00,2845.40
             411.90,2845.18 403.04,2840.29 400.00,2838.58
             400.00,2838.58 376.00,2825.86 376.00,2825.86
             376.00,2825.86 295.00,2783.31 295.00,2783.31
             295.00,2783.31 222.00,2745.22 222.00,2745.22
             222.00,2745.22 103.00,2682.74 103.00,2682.74
             103.00,2682.74 42.00,2650.69 42.00,2650.69
             42.00,2650.69 0.00,2629.00 0.00,2629.00 Z" />
</svg>
